<?xml version="1.0" encoding="iso-8859-1"?>
<!-- Generator: Adobe Illustrator 16.0.0, SVG Export Plug-In . SVG Version: 6.00 Build 0)  -->
<!DOCTYPE svg PUBLIC "-//W3C//DTD SVG 1.1//EN" "http://www.w3.org/Graphics/SVG/1.1/DTD/svg11.dtd">
<svg version="1.1" id="Capa_1" xmlns="http://www.w3.org/2000/svg" xmlns:xlink="http://www.w3.org/1999/xlink" x="0px" y="0px"
	 viewBox="0 0 512 512" style="enable-background:new 0 0 512 512;" xml:space="preserve">
<g>
	<g>
		<path d="M464,224h-16c-8.812,0-16,7.156-16,16h-17.375c-3.312-39.094-17.625-75.031-40.812-103.938
			C368.625,101.063,362,66.219,352,32L320,0v89.906C291.75,73.531,259,64,224,64s-67.719,9.531-96,25.906V0L96,32
			c-9.938,34.219-16.563,69.031-21.75,104.031C47.875,168.906,32,210.563,32,256c0,45.438,15.875,87.094,42.25,119.969
			c5.188,35,11.813,69.813,21.75,104.031l32,32v-89.906C156.281,438.469,189,448,224,448s67.75-9.531,96-25.906V512l32-32
			c10-34.219,16.625-69.062,21.812-104.031C397,347.031,411.312,311.094,414.625,272H432c0,8.844,7.188,16,16,16h16
			c8.875,0,16-7.156,16-16v-32C480,231.156,472.875,224,464,224z M224,416c-88.188,0-160-71.781-160-160S135.813,96,224,96
			c88.25,0,160,71.781,160,160S312.25,416,224,416z"/>
		<path d="M224,112c-79.5,0-144,64.469-144,144s64.5,144,144,144c79.562,0,144-64.469,144-144S303.562,112,224,112z M294.75,362.531
			L286.938,349l-13.875,8l7.625,13.188c-14.875,7.406-31.25,11.906-48.688,13V368h-16v15.188c-17.438-1.094-33.813-5.594-48.688-13
			L174.938,357l-13.875-8l-7.813,13.531c-14.156-9.438-26.313-21.594-35.75-35.781l13.5-7.812l-8-13.875l-13.188,7.625
			c-7.375-14.875-11.875-31.25-13-48.688H112v-16H96.813c1.125-17.438,5.625-33.813,13.031-48.688l13.188,7.625L131,193.063
			l-13.5-7.813c9.438-14.156,21.625-26.344,35.781-35.781L161.094,163l13.844-8l-7.625-13.188c14.875-7.406,31.25-11.906,48.688-13
			V144h16v-15.188c17.438,1.094,33.813,5.594,48.688,13L273.062,155l13.875,8l7.813-13.531
			c14.188,9.469,26.375,21.625,35.813,35.781L317,193.063l8,13.875l13.188-7.625c7.438,14.875,11.938,31.25,13,48.688H336v16h15.188
			c-1.062,17.438-5.562,33.813-13,48.688L325,305.062l-8,13.875l13.562,7.813C321.125,340.938,308.938,353.094,294.75,362.531z"/>
		<path d="M320,248h-82.438c-2.125-3.563-5.438-6.125-9.563-7.188V160h-8v80.813c-4.063,1.063-7.438,3.625-9.531,7.188H192v16
			h18.469c2.094,3.563,5.469,6.125,9.531,7.188V288h8v-16.812c4.125-1.063,7.438-3.625,9.563-7.188H320V248z"/>
	</g>
</g>
<g>
</g>
<g>
</g>
<g>
</g>
<g>
</g>
<g>
</g>
<g>
</g>
<g>
</g>
<g>
</g>
<g>
</g>
<g>
</g>
<g>
</g>
<g>
</g>
<g>
</g>
<g>
</g>
<g>
</g>
</svg>
