<?xml version="1.0" encoding="UTF-8"?>
<!DOCTYPE svg PUBLIC "-//W3C//DTD SVG 1.1//EN" "http://www.w3.org/Graphics/SVG/1.1/DTD/svg11.dtd">
<!-- Creator: CorelDRAW -->
<svg xmlns="http://www.w3.org/2000/svg" xml:space="preserve" width="2.83333in" height="2.83333in" version="1.1" style="shape-rendering:geometricPrecision; text-rendering:geometricPrecision; image-rendering:optimizeQuality; fill-rule:evenodd; clip-rule:evenodd"
viewBox="0 0 2833.33 2833.33"
 xmlns:xlink="http://www.w3.org/1999/xlink"
 xmlns:xodm="http://www.corel.com/coreldraw/odm/2003">
 <defs>
  <style type="text/css">
   <![CDATA[
    .fil3 {fill:#FEFEFE}
    .fil0 {fill:#04020D}
    .fil2 {fill:#09E7EC}
    .fil1 {fill:#EE050B}
   ]]>
  </style>
 </defs>
 <g id="Layer_x0020_1">
  <metadata id="CorelCorpID_0Corel-Layer"/>
  <circle class="fil0" cx="1416.67" cy="1416.67" r="1416.67"/>
  <g id="_3060902047904">
   <path class="fil1" d="M747.5 1738.02l0 -178.69 -214.16 0c10.73,100.3 95.98,178.69 199.11,178.69l15.06 0z"/>
   <path class="fil1" d="M790.42 1538.02l0 221.61 0 49.33 713.09 0c6.48,-0.85 12.48,-0.86 17.73,0l62.78 0 0 -320.42 -793.61 -0 0 49.48zm64.68 184.8l642.94 0 0 -169.6c0,-28.22 42.92,-28.22 42.92,0l0 191.06c0,11.78 -9.69,21.46 -21.46,21.46l-664.4 0c-28.25,0 -28.25,-42.92 0,-42.92z"/>
   <path class="fil1" d="M1627.09 1559.48l0 178.69 15.2 0c103.13,0 188.38,-78.39 199.11,-178.69l-214.31 0z"/>
   <path class="fil1" d="M1426.75 1851.89l-478.26 0c19.51,22.17 31.35,51.25 31.35,83.01 0,31.62 -11.73,60.57 -31.08,82.71l477.1 0c-19.37,-22.16 -31.1,-51.16 -31.1,-82.86 0,-34.29 13.34,-62.13 32,-82.86z"/>
   <path class="fil1" d="M1519.5 2060.68l-665.31 0c-0.05,0 -0.1,0 -0.15,0 -0.02,0 -0.05,0 -0.07,0l-13.19 0c-67.25,0 -67.19,108.06 0,108.06l693 -0.01c67.19,0 67.28,-108.05 0,-108.05l-12.78 0c-0.16,0 -0.31,0 -0.48,0 -0.34,0 -0.69,0 -1.03,-0z"/>
   <path class="fil1" d="M1625.14 1278.02l498.07 370.49c51.4,38.21 125.48,-4.12 115.95,-69.3 -2.83,-19.37 -12.96,-36.52 -28.61,-47.99l-498.22 -370.49 -87.19 117.29z"/>
   <path class="fil1" d="M1577.01 1270.96l113.86 -153.15c0.23,-0.31 0.48,-0.62 0.72,-0.92l4.19 -5.64 -65.86 -48.96 -47.75 84.9c-0.87,2.47 -2.16,4.79 -3.84,6.81l-0.59 1.06 -70.37 72.54 65.61 48.78 4.03 -5.42z"/>
   <polygon class="fil1" points="1419.86,1255.87 1529.7,1142.63 1333.29,996.58 1257.11,1134.79 "/>
   <polygon class="fil1" points="1358.83,962.21 1555.24,1108.35 1632.27,970.31 1469.55,849.25 "/>
   <path class="fil1" d="M1480.28 803.78l192.85 143.37c0.71,0.52 1.37,1.08 2,1.68l17.98 13.37c18.78,14.01 45.46,10.13 59.46,-8.79 21.68,-29.25 68.81,-74.3 25.94,-106.41l-233.98 -174.07c-7.16,-5.51 -15.95,-8.35 -25.04,-8.35 -30.36,0 -45.42,31.84 -69.15,63.93 -13.91,18.81 -10.13,45.44 8.79,59.61l19.69 14.65c0.5,0.31 1,0.64 1.47,1z"/>
   <path class="fil1" d="M1409.34 1301.71l-192.84 -143.37c-0.65,-0.48 -1.26,-0.99 -1.84,-1.52l-19.18 -14.27c-43.09,-31.92 -72.91,26.71 -94.34,55.59 -14.01,18.78 -10.13,45.46 8.79,59.47l233.98 174.07c43.17,31.97 73.04,-26.96 94.33,-55.59 14.01,-18.78 10.13,-45.46 -8.79,-59.46l-19.04 -14.17c-0.37,-0.23 -0.72,-0.48 -1.08,-0.74z"/>
  </g>
  <g id="_3060902047424">
   <path class="fil2" d="M807.5 1738.02l0 -178.69 -214.16 0c10.73,100.3 95.98,178.69 199.11,178.69l15.06 0z"/>
   <path class="fil2" d="M850.42 1538.02l0 221.61 0 49.33 713.09 0c6.48,-0.85 12.48,-0.86 17.73,0l62.78 0 0 -320.42 -793.61 -0 0 49.48zm64.68 184.8l642.94 0 0 -169.6c0,-28.22 42.92,-28.22 42.92,0l0 191.06c0,11.78 -9.69,21.46 -21.46,21.46l-664.4 0c-28.25,0 -28.25,-42.92 0,-42.92z"/>
   <path class="fil2" d="M1687.09 1559.48l0 178.69 15.2 0c103.13,0 188.38,-78.39 199.11,-178.69l-214.31 0z"/>
   <path class="fil2" d="M1486.75 1851.89l-478.26 0c19.51,22.17 31.35,51.25 31.35,83.01 0,31.62 -11.73,60.57 -31.08,82.71l477.1 0c-19.37,-22.16 -31.1,-51.16 -31.1,-82.86 0,-34.29 13.34,-62.13 32,-82.86z"/>
   <path class="fil2" d="M1579.5 2060.68l-665.31 0c-0.05,0 -0.1,0 -0.15,0 -0.02,0 -0.05,0 -0.07,0l-13.19 0c-67.25,0 -67.19,108.06 0,108.06l693 -0.01c67.19,0 67.28,-108.05 0,-108.05l-12.78 0c-0.16,0 -0.31,0 -0.48,0 -0.34,0 -0.69,0 -1.03,-0z"/>
   <path class="fil2" d="M1685.14 1278.02l498.07 370.49c51.4,38.21 125.48,-4.12 115.95,-69.3 -2.83,-19.37 -12.96,-36.52 -28.61,-47.99l-498.22 -370.49 -87.19 117.29z"/>
   <path class="fil2" d="M1637.01 1270.96l113.86 -153.15c0.23,-0.31 0.48,-0.62 0.72,-0.92l4.19 -5.64 -65.86 -48.96 -47.75 84.9c-0.87,2.47 -2.16,4.79 -3.84,6.81l-0.59 1.06 -70.37 72.54 65.61 48.78 4.03 -5.42z"/>
   <polygon class="fil2" points="1479.86,1255.87 1589.7,1142.63 1393.29,996.58 1317.11,1134.79 "/>
   <polygon class="fil2" points="1418.83,962.21 1615.24,1108.35 1692.27,970.31 1529.55,849.25 "/>
   <path class="fil2" d="M1540.28 803.78l192.85 143.37c0.71,0.52 1.37,1.08 2,1.68l17.98 13.37c18.78,14.01 45.46,10.13 59.46,-8.79 21.68,-29.25 68.81,-74.3 25.94,-106.41l-233.98 -174.07c-7.16,-5.51 -15.95,-8.35 -25.04,-8.35 -30.36,0 -45.42,31.84 -69.15,63.93 -13.91,18.81 -10.13,45.44 8.79,59.61l19.69 14.65c0.5,0.31 1,0.64 1.47,1z"/>
   <path class="fil2" d="M1469.34 1301.71l-192.84 -143.37c-0.65,-0.48 -1.26,-0.99 -1.84,-1.52l-19.18 -14.27c-43.09,-31.92 -72.91,26.71 -94.34,55.59 -14.01,18.78 -10.13,45.46 8.79,59.47l233.98 174.07c43.17,31.97 73.04,-26.96 94.33,-55.59 14.01,-18.78 10.13,-45.46 -8.79,-59.46l-19.04 -14.17c-0.37,-0.23 -0.72,-0.48 -1.08,-0.74z"/>
  </g>
  <g id="_3060902047184">
   <path class="fil3" d="M777.5 1738.02l0 -178.69 -214.16 0c10.73,100.3 95.98,178.69 199.11,178.69l15.06 0z"/>
   <path class="fil3" d="M820.42 1538.02l0 221.61 0 49.33 713.09 0c6.48,-0.85 12.48,-0.86 17.73,0l62.78 0 0 -320.42 -793.61 -0 0 49.48zm64.68 184.8l642.94 0 0 -169.6c0,-28.22 42.92,-28.22 42.92,0l0 191.06c0,11.78 -9.69,21.46 -21.46,21.46l-664.4 0c-28.25,0 -28.25,-42.92 0,-42.92z"/>
   <path class="fil3" d="M1657.09 1559.48l0 178.69 15.2 0c103.13,0 188.38,-78.39 199.11,-178.69l-214.31 0z"/>
   <path class="fil3" d="M1456.75 1851.89l-478.26 0c19.51,22.17 31.35,51.25 31.35,83.01 0,31.62 -11.73,60.57 -31.08,82.71l477.1 0c-19.37,-22.16 -31.1,-51.16 -31.1,-82.86 0,-34.29 13.34,-62.13 32,-82.86z"/>
   <path class="fil3" d="M1549.5 2060.68l-665.31 0c-0.05,0 -0.1,0 -0.15,0 -0.02,0 -0.05,0 -0.07,0l-13.19 0c-67.25,0 -67.19,108.06 0,108.06l693 -0.01c67.19,0 67.28,-108.05 0,-108.05l-12.78 0c-0.16,0 -0.31,0 -0.48,0 -0.34,0 -0.69,0 -1.03,-0z"/>
   <path class="fil3" d="M1655.14 1278.02l498.07 370.49c51.4,38.21 125.48,-4.12 115.95,-69.3 -2.83,-19.37 -12.96,-36.52 -28.61,-47.99l-498.22 -370.49 -87.19 117.29z"/>
   <path class="fil3" d="M1607.01 1270.96l113.86 -153.15c0.23,-0.31 0.48,-0.62 0.72,-0.92l4.19 -5.64 -65.86 -48.96 -47.75 84.9c-0.87,2.47 -2.16,4.79 -3.84,6.81l-0.59 1.06 -70.37 72.54 65.61 48.78 4.03 -5.42z"/>
   <polygon class="fil3" points="1449.86,1255.87 1559.7,1142.63 1363.29,996.58 1287.11,1134.79 "/>
   <polygon class="fil3" points="1388.83,962.21 1585.24,1108.35 1662.27,970.31 1499.55,849.25 "/>
   <path class="fil3" d="M1510.28 803.78l192.85 143.37c0.71,0.52 1.37,1.08 2,1.68l17.98 13.37c18.78,14.01 45.46,10.13 59.46,-8.79 21.68,-29.25 68.81,-74.3 25.94,-106.41l-233.98 -174.07c-7.16,-5.51 -15.95,-8.35 -25.04,-8.35 -30.36,0 -45.42,31.84 -69.15,63.93 -13.91,18.81 -10.13,45.44 8.79,59.61l19.69 14.65c0.5,0.31 1,0.64 1.47,1z"/>
   <path class="fil3" d="M1439.34 1301.71l-192.84 -143.37c-0.65,-0.48 -1.26,-0.99 -1.84,-1.52l-19.18 -14.27c-43.09,-31.92 -72.91,26.71 -94.34,55.59 -14.01,18.78 -10.13,45.46 8.79,59.47l233.98 174.07c43.17,31.97 73.04,-26.96 94.33,-55.59 14.01,-18.78 10.13,-45.46 -8.79,-59.46l-19.04 -14.17c-0.37,-0.23 -0.72,-0.48 -1.08,-0.74z"/>
  </g>
 </g>
</svg>
