<?xml version="1.0" encoding="UTF-8" standalone="no"?> <svg id="artwork" xmlns="http://www.w3.org/2000/svg" viewBox="0 0 64 64"><path d="M32.91016.80762a1.50026,1.50026,0,0,0-1.82032,0C30.61621,1.16943,19.5,9.77246,19.5,19.7334,19.5,26.22168,25.10742,31.5,32,31.5s12.5-5.27832,12.5-11.7666C44.5,9.77246,33.38379,1.16943,32.91016.80762ZM32,28.5a1.5,1.5,0,0,1,0-3c3.584,0,6.5-2.58691,6.5-5.7666a1.5,1.5,0,0,1,3,0C41.5,24.56738,37.23828,28.5,32,28.5Z" style="fill:#3e3ef4"/><path d="M62,60.5H55.5v-17H62a1.5,1.5,0,0,0,0-3H36.14325l23.713-19.761-.33575,2.01441a1.4999,1.4999,0,1,0,2.959.49316l1-6A1.5002,1.5002,0,0,0,62,15.5H56a1.5,1.5,0,0,0,0,3h1.85657L32,40.04736,2.96045,15.84766a1.50012,1.50012,0,0,0-1.9209,2.30468L27.85675,40.5H2a1.5,1.5,0,0,0,0,3H8.5v17H2a1.5,1.5,0,0,0,0,3H62a1.5,1.5,0,0,0,0-3Zm-9.5,0h-8v-17h8Zm-22,0h-8v-17h8Zm3-17h8v17h-8Zm-22,0h8v17h-8Z"/></svg>